<mxfile host="Electron" modified="2024-03-26T06:07:58.502Z" agent="Mozilla/5.0 (Windows NT 10.0; Win64; x64) AppleWebKit/537.36 (KHTML, like Gecko) draw.io/23.1.5 Chrome/120.0.6099.109 Electron/28.1.0 Safari/537.36" etag="pzagZlPrueZFz4LAmfw-" version="23.1.5" type="device">
  <diagram name="Page-1" id="Fy5UUvwfUfcRA9og1LQR">
    <mxGraphModel dx="515" dy="644" grid="1" gridSize="10" guides="1" tooltips="1" connect="1" arrows="1" fold="1" page="1" pageScale="1" pageWidth="850" pageHeight="1100" math="0" shadow="0">
      <root>
        <mxCell id="0" />
        <mxCell id="1" parent="0" />
        <mxCell id="aqIqvZbwGh3Oy1AnEnS7-1" value="TicTacToe&lt;span style=&quot;white-space: pre;&quot;&gt;&#x9;&lt;/span&gt;" style="swimlane;fontStyle=1;align=center;verticalAlign=top;childLayout=stackLayout;horizontal=1;startSize=26;horizontalStack=0;resizeParent=1;resizeParentMax=0;resizeLast=0;collapsible=1;marginBottom=0;whiteSpace=wrap;html=1;" vertex="1" parent="1">
          <mxGeometry x="190" y="290" width="180" height="210" as="geometry" />
        </mxCell>
        <mxCell id="aqIqvZbwGh3Oy1AnEnS7-2" value="-board:char&lt;br&gt;-whoseturn:int&lt;div&gt;-players:string&lt;/div&gt;&lt;div&gt;-pieces:char&lt;/div&gt;&lt;div&gt;+movemade:int&lt;/div&gt;" style="text;strokeColor=none;fillColor=none;align=left;verticalAlign=top;spacingLeft=4;spacingRight=4;overflow=hidden;rotatable=0;points=[[0,0.5],[1,0.5]];portConstraint=eastwest;whiteSpace=wrap;html=1;" vertex="1" parent="aqIqvZbwGh3Oy1AnEnS7-1">
          <mxGeometry y="26" width="180" height="94" as="geometry" />
        </mxCell>
        <mxCell id="aqIqvZbwGh3Oy1AnEnS7-3" value="" style="line;strokeWidth=1;fillColor=none;align=left;verticalAlign=middle;spacingTop=-1;spacingLeft=3;spacingRight=3;rotatable=0;labelPosition=right;points=[];portConstraint=eastwest;strokeColor=inherit;" vertex="1" parent="aqIqvZbwGh3Oy1AnEnS7-1">
          <mxGeometry y="120" width="180" height="8" as="geometry" />
        </mxCell>
        <mxCell id="aqIqvZbwGh3Oy1AnEnS7-4" value="mygame.changeturn():void&lt;br&gt;mygame.printboard():void&lt;br&gt;mygame.winner():void&lt;br&gt;mygame.whosePiece(win):void" style="text;strokeColor=none;fillColor=none;align=left;verticalAlign=top;spacingLeft=4;spacingRight=4;overflow=hidden;rotatable=0;points=[[0,0.5],[1,0.5]];portConstraint=eastwest;whiteSpace=wrap;html=1;" vertex="1" parent="aqIqvZbwGh3Oy1AnEnS7-1">
          <mxGeometry y="128" width="180" height="82" as="geometry" />
        </mxCell>
      </root>
    </mxGraphModel>
  </diagram>
</mxfile>
